<svg version="1.1" role="img" aria-label="Yara" id="Layer_1" xmlns="http://www.w3.org/2000/svg" xmlns:xlink="http://www.w3.org/1999/xlink" x="0" y="0" viewBox="0 0 70.9 70.9" style="enable-background:new 0 0 70.9 70.9" xml:space="preserve"><style>.st0{clip-path:url(#SVGID_2_);fill:#fff}</style><defs><path id="SVGID_1_" d="M0 0h70.9v70.9H0z"></path></defs><clipPath id="SVGID_2_"><use xlink:href="#SVGID_1_" style="overflow:visible"></use></clipPath><path class="st0" d="M69.2 66c0 1.7-1.4 3.2-3.2 3.2H4.8c-1.7 0-3.2-1.4-3.2-3.2V4.8c0-1.7 1.4-3.2 3.2-3.2H66c1.7 0 3.2 1.4 3.2 3.2V66zM66 0H4.8C2.2 0 0 2.2 0 4.8V66c0 2.7 2.2 4.8 4.8 4.8H66c2.7 0 4.8-2.2 4.8-4.8V4.8C70.9 2.2 68.7 0 66 0"></path><path d="M69.2 66c0 1.7-1.4 3.2-3.2 3.2H4.8c-1.7 0-3.2-1.4-3.2-3.2V4.8c0-1.7 1.4-3.2 3.2-3.2H66c1.7 0 3.2 1.4 3.2 3.2V66z" style="clip-path:url(#SVGID_2_);fill:#003e7e"></path><path class="st0" d="M41.3 56.5h-2.7v-3.4h2.7c1.1 0 1.7.5 1.7 1.7.1 1.1-.5 1.7-1.7 1.7m2.3 1.7c1.5-.6 2.3-1.7 2.3-3.4v-.3c-.1-2.3-1.9-3.4-4.1-3.4h-5.9v11.7h2.8v-4.2h2l2.1 4.2h3.1l-2.3-4.6M21.2 51H18l-1.9 5.1-2.2-3.8c-.4-.7-1.4-1.3-2.3-1.3H10l4.8 8.4-1.2 3.3h1.6c.8 0 1.7-.6 2-1.4l4-10.3zM30.2 59.6l1.2 3.1h3l-3.9-10.3c-.3-.8-1.2-1.4-2-1.4h-3.4l-4.4 11.7h1.5c.8 0 1.7-.6 2-1.4l.6-1.7h5.4m-.7-2h-4l1.7-4.4c.2-.5.5-.5.6 0l1.7 4.4M51 59.6h5.4l.6 1.7c.3.8 1.2 1.4 2 1.4h1.5L56.1 51h-3.4c-.8 0-1.7.6-2 1.4l-3.9 10.3h3l1.2-3.1m2.4-6.4c.2-.5.5-.5.6 0l1.7 4.4h-4l1.7-4.4"></path><path d="M39.3 33.9c-1.7 0-3 1.3-3 3s1.3 3 3 3 3-1.3 3-3-1.4-3-3-3m-7.6 0c-1.7 0-3 1.3-3 3s1.3 3 3 3 3-1.3 3-3-1.4-3-3-3m15.2 0c-1.7 0-3 1.3-3 3s1.3 3 3 3 3-1.3 3-3-1.3-3-3-3m-22.9 0c-1.7 0-3 1.3-3 3s1.3 3 3 3 3-1.3 3-3-1.3-3-3-3m35.4 4.6c-.8-1.6-2.2-4.3-2.4-5.2 0 0-.8-2.1 1.4-2.4.9-.1 1.6-.8 1.6-1.7v-1c0-.1-.1-.3-.3-.3h-3.6c-.1 0-2.6.3-2.6 3.3-.1 5.2 0 5.9-1.4 6.1-.1 0-.2-.1-.2-.2v-.2c0-2.8-2.2-5-5-5-1.4 0-2.7.6-3.6 1.5 0 .1-.1.1-.2.1s-.2-.1-.2-.1c-.9-.9-2.2-1.5-3.6-1.5s-2.7.6-3.6 1.5c0 .1-.1.1-.2.1s-.2-.1-.2-.1c-.9-.9-2.2-1.5-3.6-1.5s-2.7.6-3.6 1.5c0 .1-.1.1-.2.1s-.2-.1-.2-.1c-.9-.9-2.2-1.5-3.6-1.5-2.8 0-5 2.2-5 5v.2c0 .1-.1.2-.3.2-1.4-.2-1.3-.9-1.4-6.1 0-3-2.5-3.3-2.6-3.3h-3.6c-.1 0-.3.1-.3.3v1c0 .9.7 1.6 1.6 1.7 2.2.3 1.4 2.4 1.4 2.4-.3.9-1.6 3.6-2.4 5.2-.5 1-1.5 3.6.1 6.1.9 1.4 2 2.8 5.9 2.7h36c3.9.1 5-1.3 5.9-2.7 1.5-2.5.5-5 0-6.1m-25.1-9.1c.1.1.5.1.8.1h5.1c-2.6-2.3-4.2-8-4.2-11.4 0-3.5 1.6-9.2 4.2-11.4h-5.1c-.3 0-.7 0-.8.1 0 0-4.6 4.5-4.6 11.3.1 6.9 4.6 11.3 4.6 11.3m11.1 0c.1.1.5.1.8.1h5.1c-2.6-2.3-4.2-8-4.2-11.4 0-3.5 1.6-9.2 4.2-11.4h-5.1c-.3 0-.7 0-.8.1 0 0-4.6 4.4-4.6 11.3s4.6 11.3 4.6 11.3M18.7 18.1c0-6.9 4.6-11.3 4.6-11.3.1-.1.5-.1.8-.1h5.1C26.6 9 25 14.7 25 18.1c0 3.5 1.6 9.1 4.2 11.4h-5.1c-.3 0-.7 0-.8-.1 0 0-4.6-4.4-4.6-11.3" style="clip-path:url(#SVGID_2_);fill-rule:evenodd;clip-rule:evenodd;fill:#fff"></path></svg>